<?xml version="1.0" encoding="utf-8"?>
<!-- Generator: Adobe Illustrator 21.1.0, SVG Export Plug-In . SVG Version: 6.00 Build 0)  -->
<svg version="1.1" id="Layer_1" xmlns="http://www.w3.org/2000/svg" xmlns:xlink="http://www.w3.org/1999/xlink" x="0px" y="0px"
	 viewBox="0 0 206 204" style="enable-background:new 0 0 206 204;" xml:space="preserve">
<style type="text/css">
	.st0{fill:#FFFFFF;}
</style>
<g>
	<path class="st0" d="M103,198c-52.9,0-96-43.1-96-96S50.1,6,103,6s96,43.1,96,96S155.9,198,103,198z"/>
	<path d="M103,11c50.2,0,91,40.8,91,91s-40.8,91-91,91s-91-40.8-91-91S52.8,11,103,11 M103,1C47.2,1,2,46.2,2,102s45.2,101,101,101
		s101-45.2,101-101S158.8,1,103,1L103,1z"/>
</g>
<ellipse cx="103.1" cy="109.5" rx="77.1" ry="30.5"/>
<ellipse cx="153.5" cy="105" rx="28.5" ry="25"/>
<ellipse cx="51.5" cy="102" rx="28.5" ry="25"/>
<ellipse cx="129.5" cy="77" rx="34.5" ry="31"/>
<ellipse cx="77.5" cy="80.5" rx="23.5" ry="19.5"/>
<g>
	<path d="M148.1,58.6c-4.4-3.4-9.9-4.8-13.6-5.3c0.6,0,1.1-0.1,1.7-0.1C142.5,53.2,146.2,56.2,148.1,58.6z"/>
	<path class="st0" d="M136.2,52.7c-1.7,0-3.7,0.2-5.8,0.7c0,0,0,0,0,0c0.3,0,13.2,0.1,20,8.1C150.4,61.5,147.2,52.7,136.2,52.7
		L136.2,52.7z"/>
</g>
</svg>
