<?xml version="1.0" encoding="utf-8"?>
<!-- Generator: Adobe Illustrator 21.1.0, SVG Export Plug-In . SVG Version: 6.00 Build 0)  -->
<svg version="1.1" id="Layer_1" xmlns="http://www.w3.org/2000/svg" xmlns:xlink="http://www.w3.org/1999/xlink" x="0px" y="0px"
	 viewBox="0 0 206 204" style="enable-background:new 0 0 206 204;" xml:space="preserve">
<style type="text/css">
	.st0{fill:#FFFFFF;}
	.st1{fill:none;stroke:#000000;stroke-width:8;stroke-miterlimit:10;}
	.st2{fill:none;stroke:#000000;stroke-width:2;stroke-miterlimit:10;}
	.st3{fill:none;stroke:#000000;stroke-miterlimit:10;}
</style>
<g>
	<path class="st0" d="M103,198c-52.9,0-96-43.1-96-96S50.1,6,103,6s96,43.1,96,96S155.9,198,103,198z"/>
	<path d="M103,11c50.2,0,91,40.8,91,91s-40.8,91-91,91s-91-40.8-91-91S52.8,11,103,11 M103,1C47.2,1,2,46.2,2,102s45.2,101,101,101
		s101-45.2,101-101S158.8,1,103,1L103,1z"/>
</g>
<rect x="62" y="82.5" class="st1" width="79.7" height="89.5"/>
<polygon class="st1" points="101.3,22.6 124.8,52.3 148.3,82 101.3,82 54.4,82 77.8,52.3 "/>
<rect x="92" y="145" class="st2" width="20.6" height="24"/>
<rect x="73" y="102" class="st2" width="21" height="17"/>
<rect x="110" y="102" class="st2" width="21" height="17"/>
<circle class="st3" cx="108" cy="158" r="1"/>
</svg>
