<?xml version="1.0" encoding="utf-8"?>
<!-- Generator: Adobe Illustrator 21.1.0, SVG Export Plug-In . SVG Version: 6.00 Build 0)  -->
<svg version="1.1" id="Layer_1" xmlns="http://www.w3.org/2000/svg" xmlns:xlink="http://www.w3.org/1999/xlink" x="0px" y="0px"
	 viewBox="0 0 206 204" style="enable-background:new 0 0 206 204;" xml:space="preserve">
<style type="text/css">
	.st0{fill:#FFFFFF;}
</style>
<g>
	<path class="st0" d="M103,198c-52.9,0-96-43.1-96-96S50.1,6,103,6s96,43.1,96,96S155.9,198,103,198z"/>
	<path d="M103,11c50.2,0,91,40.8,91,91s-40.8,91-91,91s-91-40.8-91-91S52.8,11,103,11 M103,1C47.2,1,2,46.2,2,102s45.2,101,101,101
		s101-45.2,101-101S158.8,1,103,1L103,1z"/>
</g>
<g>
	<polygon points="69.4,52.5 158.3,104 69.3,155.2 	"/>
	<path d="M74.4,61.2l37,21.4l37,21.4l-37,21.3l-37,21.3l0-42.7L74.4,61.2 M64.4,43.9l-0.1,60l-0.1,60l52-30l52-30l-52-30.1
		L64.4,43.9L64.4,43.9z"/>
</g>
</svg>
